[Header]
FileType HTR
DataType HTRS
FileVersion 1
NumSegments 64
NumFrames 4
DataFrameRate 24
EulerRotationOrder ZYX
CalibrationUnits mm
RotationUnits Degrees
GlobalAxisofGravity Y
BoneLengthAxis Y
ScaleFactor 1.0
[SegmentNames&Hierarchy]
Hips	GLOBAL
Spine	Hips
Spine1	Spine
Spine2	Spine1
Neck	Spine2
Head	Neck
LeftEye	Head
RightEye	Head
LeftShoulder	Spine2
LeftArm	LeftShoulder
LeftForeArm	LeftArm
LeftHand	LeftForeArm
LeftHandThumb1	LeftHand
LeftHandThumb2	LeftHandThumb1
LeftHandThumb3	LeftHandThumb2
LeftHandThumb4	LeftHandThumb3
LeftHandIndex1	LeftHand
LeftHandIndex2	LeftHandIndex1
LeftHandIndex3	LeftHandIndex2
LeftHandIndex4	LeftHandIndex3
LeftHandMiddle1	LeftHand
LeftHandMiddle2	LeftHandMiddle1
LeftHandMiddle3	LeftHandMiddle2
LeftHandMiddle4	LeftHandMiddle3
LeftHandRing1	LeftHand
LeftHandRing2	LeftHandRing1
LeftHandRing3	LeftHandRing2
LeftHandRing4	LeftHandRing3
LeftHandPinky1	LeftHand
LeftHandPinky2	LeftHandPinky1
LeftHandPinky3	LeftHandPinky2
LeftHandPinky4	LeftHandPinky3
RightShoulder	Spine2
RightArm	RightShoulder
RightForeArm	RightArm
RightHand	RightForeArm
RightHandPinky1	RightHand
RightHandPinky2	RightHandPinky1
RightHandPinky3	RightHandPinky2
RightHandPinky4	RightHandPinky3
RightHandRing1	RightHand
RightHandRing2	RightHandRing1
RightHandRing3	RightHandRing2
RightHandRing4	RightHandRing3
RightHandMiddle1	RightHand
RightHandMiddle2	RightHandMiddle1
RightHandMiddle3	RightHandMiddle2
RightHandMiddle4	RightHandMiddle3
RightHandIndex1	RightHand
RightHandIndex2	RightHandIndex1
RightHandIndex3	RightHandIndex2
RightHandIndex4	RightHandIndex3
RightHandThumb1	RightHand
RightHandThumb2	RightHandThumb1
RightHandThumb3	RightHandThumb2
RightHandThumb4	RightHandThumb3
LeftUpLeg	Hips
LeftLeg	LeftUpLeg
LeftFoot	LeftLeg
LeftToeBase	LeftFoot
RightUpLeg	Hips
RightLeg	RightUpLeg
RightFoot	RightLeg
RightToeBase	RightFoot
[BasePosition]
Hips	0	0	0	0	0	0	1
Spine	0	0	0	0	0	0	1
Spine1	0	0	0	0	0	0	1
Spine2	0	0	0	0	0	0	1
Neck	0	0	0	0	0	0	1
Head	0	0	0	0	0	0	1
LeftEye	0	0	0	0	0	0	1
RightEye	0	0	0	0	0	0	1
LeftShoulder	0	0	0	0	0	0	1
LeftArm	0	0	0	0	0	0	1
LeftForeArm	0	0	0	0	0	0	1
LeftHand	0	0	0	0	0	0	1
LeftHandThumb1	0	0	0	0	0	0	1
LeftHandThumb2	0	0	0	0	0	0	1
LeftHandThumb3	0	0	0	0	0	0	1
LeftHandThumb4	0	0	0	0	0	0	1
LeftHandIndex1	0	0	0	0	0	0	1
LeftHandIndex2	0	0	0	0	0	0	1
LeftHandIndex3	0	0	0	0	0	0	1
LeftHandIndex4	0	0	0	0	0	0	1
LeftHandMiddle1	0	0	0	0	0	0	1
LeftHandMiddle2	0	0	0	0	0	0	1
LeftHandMiddle3	0	0	0	0	0	0	1
LeftHandMiddle4	0	0	0	0	0	0	1
LeftHandRing1	0	0	0	0	0	0	1
LeftHandRing2	0	0	0	0	0	0	1
LeftHandRing3	0	0	0	0	0	0	1
LeftHandRing4	0	0	0	0	0	0	1
LeftHandPinky1	0	0	0	0	0	0	1
LeftHandPinky2	0	0	0	0	0	0	1
LeftHandPinky3	0	0	0	0	0	0	1
LeftHandPinky4	0	0	0	0	0	0	1
RightShoulder	0	0	0	0	0	0	1
RightArm	0	0	0	0	0	0	1
RightForeArm	0	0	0	0	0	0	1
RightHand	0	0	0	0	0	0	1
RightHandPinky1	0	0	0	0	0	0	1
RightHandPinky2	0	0	0	0	0	0	1
RightHandPinky3	0	0	0	0	0	0	1
RightHandPinky4	0	0	0	0	0	0	1
RightHandRing1	0	0	0	0	0	0	1
RightHandRing2	0	0	0	0	0	0	1
RightHandRing3	0	0	0	0	0	0	1
RightHandRing4	0	0	0	0	0	0	1
RightHandMiddle1	0	0	0	0	0	0	1
RightHandMiddle2	0	0	0	0	0	0	1
RightHandMiddle3	0	0	0	0	0	0	1
RightHandMiddle4	0	0	0	0	0	0	1
RightHandIndex1	0	0	0	0	0	0	1
RightHandIndex2	0	0	0	0	0	0	1
RightHandIndex3	0	0	0	0	0	0	1
RightHandIndex4	0	0	0	0	0	0	1
RightHandThumb1	0	0	0	0	0	0	1
RightHandThumb2	0	0	0	0	0	0	1
RightHandThumb3	0	0	0	0	0	0	1
RightHandThumb4	0	0	0	0	0	0	1
LeftUpLeg	0	0	0	0	0	0	1
LeftLeg	0	0	0	0	0	0	1
LeftFoot	0	0	0	0	0	0	1
LeftToeBase	0	0	0	0	0	0	1
RightUpLeg	0	0	0	0	0	0	1
RightLeg	0	0	0	0	0	0	1
RightFoot	0	0	0	0	0	0	1
RightToeBase	0	0	0	0	0	0	1
[Hips]
35	-32.59832764	970.2800293	18.40870857	-14.91210175	27.26919937	-9.526773453	1.0
36	-30.08522034	958.6975708	17.69872856	-16.59455872	31.21882057	-11.32008839	1.0
37	-26.3102951	936.3533936	15.4484005	-18.34152412	33.09821701	-12.47726059	1.0
38	-22.01084518	910.5158081	12.13832951	-19.87606812	32.86369705	-13.1030674	1.0
[Spine]
35	9.234152094e-05	101.8158798	1.31520927	10.3885498	0.3574258089	-13.84853935	1.0
36	9.234152094e-05	101.8158798	1.31520927	12.53382778	1.03831768	-15.18039131	1.0
37	9.234152094e-05	101.8158798	1.31520927	14.58490658	2.637128353	-16.456007	1.0
38	9.234152094e-05	101.8158798	1.31520927	15.93797588	4.401756287	-17.72589874	1.0
[Spine1]
35	2.519402869e-06	100.8345108	-10.00804329	6.134493828	-0.1915001422	-4.580515862	1.0
36	2.519402869e-06	100.8345108	-10.00804329	8.082574844	0.01495494973	-5.590255737	1.0
37	2.519402869e-06	100.8345108	-10.00804329	9.768466949	0.5044254065	-6.393549442	1.0
38	2.519402869e-06	100.8345108	-10.00804329	11.00020981	1.055407643	-6.881414413	1.0
[Spine2]
35	3.4574864e-06	91.00010681	-13.73417091	-0.6729841828	-0.4513630867	-3.316038847	1.0
36	3.4574864e-06	91.00010681	-13.73417091	0.2620913684	-0.3232795894	-3.660750151	1.0
37	3.4574864e-06	91.00010681	-13.73417091	1.139303923	0.05211735144	-3.915445328	1.0
38	3.4574864e-06	91.00010681	-13.73417091	1.820387244	0.5013666749	-4.004498959	1.0
[Neck]
35	6.334285445e-06	166.7166901	-25.16167831	10.01531792	-0.3510995507	-0.3632126749	1.0
36	6.334285445e-06	166.7166901	-25.16167831	9.901424408	-0.6869287491	0.3130107224	1.0
37	6.334285445e-06	166.7166901	-25.16167831	9.690216064	-0.9858415127	0.9859649539	1.0
38	6.334285445e-06	166.7166901	-25.16167831	9.545832634	-1.112399578	1.215827465	1.0
[Head]
35	-4.242318937e-06	96.17874908	16.85007477	8.359713554	-7.765090466	4.734711647	1.0
36	-4.242318937e-06	96.17874908	16.85007477	5.83809042	-11.02265835	7.047388554	1.0
37	-4.242318937e-06	96.17874908	16.85007477	3.714929581	-14.00563049	9.823466301	1.0
38	-4.242318937e-06	96.17874908	16.85007477	1.74659431	-15.7052269	12.11038303	1.0
[LeftEye]
35	30.67560577	64.09507751	92.83554077	0	0	0	1.0
36	30.67560577	64.09507751	92.83554077	0	0	0	1.0
37	30.67560577	64.09507751	92.83554077	0	0	0	1.0
38	30.67560577	64.09507751	92.83554077	0	0	0	1.0
[RightEye]
35	-30.67550468	64.09500122	92.83547211	0	0	0	1.0
36	-30.67550468	64.09500122	92.83547211	0	0	0	1.0
37	-30.67550468	64.09500122	92.83547211	0	0	0	1.0
38	-30.67550468	64.09500122	92.83547211	0	0	0	1.0
[LeftShoulder]
35	45.70446396	109.4598465	-26.27988052	15.01224709	-16.70604324	-31.46324539	1.0
36	45.70446396	109.4598465	-26.27988052	13.41745472	-20.20253372	-29.68708038	1.0
37	45.70446396	109.4598465	-26.27988052	11.60967064	-23.96365356	-21.339571	1.0
38	45.70446396	109.4598465	-26.27988052	8.654556274	-26.83227158	-13.53834915	1.0
[LeftArm]
35	105.9236984	-5.245829105	-22.32120132	-77.86048126	-5.148643017	17.2355423	1.0
36	105.9236984	-5.245829105	-22.32120132	-74.13961029	-3.622065306	7.904138088	1.0
37	105.9236984	-5.245829105	-22.32120132	-70.75402832	-0.7997400165	-3.731342316	1.0
38	105.9236984	-5.245829105	-22.32120132	-71.15718842	0.8899129629	-13.91575718	1.0
[LeftForeArm]
35	278.4151917	-0.0008942864952	0.0003745891154	-7.560637951	-58.83995056	13.10606861	1.0
36	278.4151917	-0.0008942864952	0.0003745891154	-9.530416489	-55.28131104	12.5796814	1.0
37	278.4151917	-0.0008942864952	0.0003745891154	-15.36571312	-49.75057983	14.60457993	1.0
38	278.4151917	-0.0008942864952	0.0003745891154	-16.69564629	-47.32188416	13.79646206	1.0
[LeftHand]
35	283.2883911	-0.0001744071778	0.0003780452244	-71.48002625	-37.09492493	-2.24683547	1.0
36	283.2883911	-0.0001744071778	0.0003780452244	-70.53440857	-32.07197571	-3.04857707	1.0
37	283.2883911	-0.0001744071778	0.0003780452244	-70.31344604	-28.45000458	-3.514631748	1.0
38	283.2883911	-0.0001744071778	0.0003780452244	-70.32093811	-27.34810257	-4.68521595	1.0
[LeftHandThumb1]
35	24.66140366	-15.7504921	26.82413483	4.131777763	-1.569385886	11.44469357	1.0
36	24.66140366	-15.7504921	26.82413483	4.694437981	-2.000488043	11.82370663	1.0
37	24.66140366	-15.7504921	26.82413483	4.537050724	-1.881876588	11.7171402	1.0
38	24.66140366	-15.7504921	26.82413483	4.570455074	-1.907029867	11.73977947	1.0
[LeftHandThumb2]
35	32.29803848	-18.6469059	18.64681244	19.36804199	24.44028091	16.26546478	1.0
36	32.29803848	-18.6469059	18.64681244	19.72259712	24.3566246	16.41967964	1.0
37	32.29803848	-18.6469059	18.64681244	19.62392426	24.37950706	16.37657166	1.0
38	32.29803848	-18.6469059	18.64681244	19.64500809	24.37410927	16.38650513	1.0
[LeftHandThumb3]
35	26.52565002	-15.31492996	15.31471634	7.708040714	14.39730549	22.27152443	1.0
36	26.52565002	-15.31492996	15.31471634	7.937441826	14.13601303	22.39891434	1.0
37	26.52565002	-15.31492996	15.31471634	7.873444557	14.2085104	22.36310196	1.0
38	26.52565002	-15.31492996	15.31471634	7.887044907	14.19312954	22.37071228	1.0
[LeftHandThumb4]
35	19.54566956	-11.2850008	11.28492165	0	0	0	1.0
36	19.54566956	-11.2850008	11.28492165	0	0	0	1.0
37	19.54566956	-11.2850008	11.28492165	0	0	0	1.0
38	19.54566956	-11.2850008	11.28492165	0	0	0	1.0
[LeftHandIndex1]
35	91.09301758	-5.170834064	22.6007309	-1.026946187	6.985050678	-9.698604584	1.0
36	91.09301758	-5.170834064	22.6007309	-1.065866828	6.965489864	-9.069040298	1.0
37	91.09301758	-5.170834064	22.6007309	-1.055182576	6.970794678	-9.243894577	1.0
38	91.09301758	-5.170834064	22.6007309	-1.057323098	6.969373703	-9.205878258	1.0
[LeftHandIndex2]
35	36.76409531	-6.939138257e-05	0.0002924251603	1.727102757	1.47618711	-12.50844574	1.0
36	36.76409531	-6.939138257e-05	0.0002924251603	1.720718145	1.490238667	-12.66633701	1.0
37	36.76409531	-6.939138257e-05	0.0002924251603	1.722475171	1.486310482	-12.62233829	1.0
38	36.76409531	-6.939138257e-05	0.0002924251603	1.722114921	1.487048149	-12.63092899	1.0
[LeftHandIndex3]
35	28.83062553	0.000385119667	-0.0004276481632	0.7483861446	1.250608683	-11.49602413	1.0
36	28.83062553	0.000385119667	-0.0004276481632	0.724067986	1.246410012	-11.47230816	1.0
37	28.83062553	0.000385119667	-0.0004276481632	0.73083812	1.247556806	-11.47872448	1.0
38	28.83062553	0.000385119667	-0.0004276481632	0.7294265628	1.247163057	-11.47606277	1.0
[LeftHandIndex4]
35	23.92720032	0.0003702590766	0.0003355443478	0	0	0	1.0
36	23.92720032	0.0003702590766	0.0003355443478	0	0	0	1.0
37	23.92720032	0.0003702590766	0.0003355443478	0	0	0	1.0
38	23.92720032	0.0003702590766	0.0003355443478	0	0	0	1.0
[LeftHandMiddle1]
35	95.33401489	-0.000339240476	0.0001393702551	0.6234292388	3.591176987	-10.64525986	1.0
36	95.33401489	-0.000339240476	0.0001393702551	0.6153812408	3.490203142	-9.972596169	1.0
37	95.33401489	-0.000339240476	0.0001393702551	0.6173659563	3.51811552	-10.15945816	1.0
38	95.33401489	-0.000339240476	0.0001393702551	0.6169943213	3.512088537	-10.11887932	1.0
[LeftHandMiddle2]
35	36.98236847	1.961359158e-05	0.0001791696704	-1.347550869	0.9189435244	-8.872552872	1.0
36	36.98236847	1.961359158e-05	0.0001791696704	-1.170628667	0.8867455125	-8.944796562	1.0
37	36.98236847	1.961359158e-05	0.0001791696704	-1.219804168	0.8957114816	-8.924642563	1.0
38	36.98236847	1.961359158e-05	0.0001791696704	-1.209362268	0.8937636018	-8.928421021	1.0
[LeftHandMiddle3]
35	29.50921631	-0.0003937608562	0.0001644795993	0.06958724558	1.235820413	-11.64779663	1.0
36	29.50921631	-0.0003937608562	0.0001644795993	0.05552735552	1.203986049	-11.36586285	1.0
37	29.50921631	-0.0003937608562	0.0001644795993	0.05937829241	1.21281302	-11.44405746	1.0
38	29.50921631	-0.0003937608562	0.0001644795993	0.05859214813	1.210805655	-11.42611694	1.0
[LeftHandMiddle4]
35	28.3390255	-0.0003893481917	-9.504223272e-05	0	0	0	1.0
36	28.3390255	-0.0003893481917	-9.504223272e-05	0	0	0	1.0
37	28.3390255	-0.0003893481917	-9.504223272e-05	0	0	0	1.0
38	28.3390255	-0.0003893481917	-9.504223272e-05	0	0	0	1.0
[LeftHandRing1]
35	91.04527283	-0.4393950403	-18.65084648	-2.288254261	3.884901524	-10.1389122	1.0
36	91.04527283	-0.4393950403	-18.65084648	-2.254937887	3.74502039	-9.693433762	1.0
37	91.04527283	-0.4393950403	-18.65084648	-2.264339209	3.783810377	-9.817131042	1.0
38	91.04527283	-0.4393950403	-18.65084648	-2.262293577	3.775518179	-9.78996563	1.0
[LeftHandRing2]
35	31.54026794	-6.55346812e-05	0.000104257444	-5.319805145	0.8968733549	-19.7408905	1.0
36	31.54026794	-6.55346812e-05	0.000104257444	-5.184517384	0.9377858639	-19.84917068	1.0
37	31.54026794	-6.55346812e-05	0.000104257444	-5.22213459	0.9264330864	-19.81888771	1.0
38	31.54026794	-6.55346812e-05	0.000104257444	-5.214096546	0.9288278818	-19.8241272	1.0
[LeftHandRing3]
35	29.37672424	-0.0004545861739	-6.864757597e-05	-3.20037365	1.018648863	-13.20110703	1.0
36	29.37672424	-0.0004545861739	-6.864757597e-05	-3.059859991	1.035927653	-13.09296989	1.0
37	29.37672424	-0.0004545861739	-6.864757597e-05	-3.098904371	1.031089306	-13.12282658	1.0
38	29.37672424	-0.0004545861739	-6.864757597e-05	-3.090590715	1.032060385	-13.11519051	1.0
[LeftHandRing4]
35	26.47452545	-0.0004980441299	7.070515267e-07	0	0	0	1.0
36	26.47452545	-0.0004980441299	7.070515267e-07	0	0	0	1.0
37	26.47452545	-0.0004980441299	7.070515267e-07	0	0	0	1.0
38	26.47452545	-0.0004980441299	7.070515267e-07	0	0	0	1.0
[LeftHandPinky1]
35	80.77777863	-4.886682034	-38.06066895	-7.741465569	3.896125793	-10.96550083	1.0
36	80.77777863	-4.886682034	-38.06066895	-7.407149792	3.708052874	-10.27322197	1.0
37	80.77777863	-4.886682034	-38.06066895	-7.500427246	3.759850979	-10.46566391	1.0
38	80.77777863	-4.886682034	-38.06066895	-7.480564117	3.748881578	-10.42389107	1.0
[LeftHandPinky2]
35	36.00034332	-2.252215199e-05	-0.0002623879409	0.2686992884	0.5900272131	-13.13612747	1.0
36	36.00034332	-2.252215199e-05	-0.0002623879409	0.01734440029	0.7529755235	-13.16649246	1.0
37	36.00034332	-2.252215199e-05	-0.0002623879409	0.08721270412	0.7076597214	-13.1580162	1.0
38	36.00034332	-2.252215199e-05	-0.0002623879409	0.07238914073	0.7172011137	-13.15906525	1.0
[LeftHandPinky3]
35	21.14211655	0.0001953828178	-2.864415183e-05	-5.55456543	2.166258812	-17.08363724	1.0
36	21.14211655	0.0001953828178	-2.864415183e-05	-5.185811996	1.995272636	-17.17585564	1.0
37	21.14211655	0.0001953828178	-2.864415183e-05	-5.288264751	2.042832136	-17.15007782	1.0
38	21.14211655	0.0001953828178	-2.864415183e-05	-5.266457558	2.032728195	-17.1542511	1.0
[LeftHandPinky4]
35	19.7568264	0.0001240565616	-0.0004430140834	0	0	0	1.0
36	19.7568264	0.0001240565616	-0.0004430140834	0	0	0	1.0
37	19.7568264	0.0001240565616	-0.0004430140834	0	0	0	1.0
38	19.7568264	0.0001240565616	-0.0004430140834	0	0	0	1.0
[RightShoulder]
35	-45.69969559	109.4617615	-26.28017426	12.01096725	2.197937012	-22.78561401	1.0
36	-45.69969559	109.4617615	-26.28017426	9.578606606	6.435268879	-30.08691597	1.0
37	-45.69969559	109.4617615	-26.28017426	6.280896664	11.4279871	-36.6473465	1.0
38	-45.69969559	109.4617615	-26.28017426	3.007443666	15.08099651	-40.95418167	1.0
[RightArm]
35	-105.9284363	-5.247983932	-22.32098579	-82.46212006	7.429346085	-25.89485168	1.0
36	-105.9284363	-5.247983932	-22.32098579	-72.73451996	5.080221176	-21.58706665	1.0
37	-105.9284363	-5.247983932	-22.32098579	-63.91573334	4.169364929	-18.50370789	1.0
38	-105.9284363	-5.247983932	-22.32098579	-59.31446457	4.37506485	-17.87276077	1.0
[RightForeArm]
35	-278.4151917	-0.0003307921579	0.0001167631053	-31.38007164	49.6152916	-30.23410606	1.0
36	-278.4151917	-0.0003307921579	0.0001167631053	-29.59757614	50.47005844	-28.15763092	1.0
37	-278.4151917	-0.0003307921579	0.0001167631053	-27.39895248	51.2625351	-26.14142609	1.0
38	-278.4151917	-0.0003307921579	0.0001167631053	-26.50897598	51.26633453	-25.34827042	1.0
[RightHand]
35	-283.2883911	-1.581417109e-06	0.000558160129	-63.7202301	31.04509163	9.812835693	1.0
36	-283.2883911	-1.581417109e-06	0.000558160129	-62.87404633	26.98412132	10.70040321	1.0
37	-283.2883911	-1.581417109e-06	0.000558160129	-62.1352272	24.29035759	11.42229843	1.0
38	-283.2883911	-1.581417109e-06	0.000558160129	-61.71279144	22.68079567	12.4869194	1.0
[RightHandPinky1]
35	-80.76674652	-4.88459301	-38.06010437	-19.07182312	-8.979000092	33.66316223	1.0
36	-80.76674652	-4.88459301	-38.06010437	-17.65213776	-8.353902817	30.79558372	1.0
37	-80.76674652	-4.88459301	-38.06010437	-16.11290359	-7.654611111	27.67164993	1.0
38	-80.76674652	-4.88459301	-38.06010437	-14.53594208	-6.924275398	24.45911407	1.0
[RightHandPinky2]
35	-36.00034332	0.0003967665543	0.0005081442068	8.695505142	5.095129013	12.03440475	1.0
36	-36.00034332	0.0003967665543	0.0005081442068	7.670014381	4.435321331	12.16953182	1.0
37	-36.00034332	0.0003967665543	0.0005081442068	6.550901413	3.714897156	12.3173151	1.0
38	-36.00034332	0.0003967665543	0.0005081442068	5.398816109	2.972668409	12.46907902	1.0
[RightHandPinky3]
35	-21.14211655	0.0001513792522	0.0001479376951	-17.79238319	-7.579030991	14.16446495	1.0
36	-21.14211655	0.0001513792522	0.0001479376951	-16.29662132	-6.876412868	14.52690697	1.0
37	-21.14211655	0.0001513792522	0.0001479376951	-14.66222095	-6.109357834	14.92212486	1.0
38	-21.14211655	0.0001513792522	0.0001479376951	-12.97785282	-5.31870842	15.32768345	1.0
[RightHandPinky4]
35	-19.7568264	-0.000185219571	-9.839841368e-06	0	0	0	1.0
36	-19.7568264	-0.000185219571	-9.839841368e-06	0	0	0	1.0
37	-19.7568264	-0.000185219571	-9.839841368e-06	0	0	0	1.0
38	-19.7568264	-0.000185219571	-9.839841368e-06	0	0	0	1.0
[RightHandRing1]
35	-91.03588104	-0.4391434789	-18.65072441	-3.428465366	-7.777854443	24.48584366	1.0
36	-91.03588104	-0.4391434789	-18.65072441	-3.268627882	-7.275897503	22.64623833	1.0
37	-91.03588104	-0.4391434789	-18.65072441	-3.099475861	-6.722047329	20.64056587	1.0
38	-91.03588104	-0.4391434789	-18.65072441	-2.929252625	-6.146747112	18.57732201	1.0
[RightHandRing2]
35	-31.54026794	0.0002399729856	0.0004885121016	-9.794809341	0.800431788	16.12499046	1.0
36	-31.54026794	0.0002399729856	0.0004885121016	-9.239801407	0.6424317956	16.56740952	1.0
37	-31.54026794	0.0002399729856	0.0004885121016	-8.634093285	0.4698960185	17.05017662	1.0
38	-31.54026794	0.0002399729856	0.0004885121016	-8.010375977	0.2924694717	17.54763603	1.0
[RightHandRing3]
35	-29.37672424	-0.0004160065437	-0.0003966063377	-7.84505415	-0.09158311039	16.81512833	1.0
36	-29.37672424	-0.0004160065437	-0.0003966063377	-7.274085045	-0.1715922505	16.37703133	1.0
37	-29.37672424	-0.0004160065437	-0.0003966063377	-6.65089035	-0.258749038	15.89816093	1.0
38	-29.37672424	-0.0004160065437	-0.0003966063377	-6.009263039	-0.3486481905	15.40479279	1.0
[RightHandRing4]
35	-26.47452545	0.0002460821415	-2.294923434e-05	0	0	0	1.0
36	-26.47452545	0.0002460821415	-2.294923434e-05	0	0	0	1.0
37	-26.47452545	0.0002460821415	-2.294923434e-05	0	0	0	1.0
38	-26.47452545	0.0002460821415	-2.294923434e-05	0	0	0	1.0
[RightHandMiddle1]
35	-95.32502747	-0.0001631230261	0.0001679184206	0.7311402559	-5.85174799	32.52843475	1.0
36	-95.32502747	-0.0001631230261	0.0001679184206	0.7541698813	-5.568315029	29.76976585	1.0
37	-95.32502747	-0.0001631230261	0.0001679184206	0.7695242763	-5.244907856	26.76015091	1.0
38	-95.32502747	-0.0001631230261	0.0001679184206	0.7764434218	-4.899429798	23.66264915	1.0
[RightHandMiddle2]
35	-36.98236847	0.000150669599	-0.0002254552383	-7.242240906	-1.858746648	6.5048666	1.0
36	-36.98236847	0.000150669599	-0.0002254552383	-6.521625042	-1.721746683	6.79582262	1.0
37	-36.98236847	0.000150669599	-0.0002254552383	-5.734793186	-1.572203994	7.113353729	1.0
38	-36.98236847	0.000150669599	-0.0002254552383	-4.924380302	-1.417958498	7.440329552	1.0
[RightHandMiddle3]
35	-29.50921631	-3.113244929e-06	-3.03402544e-06	0.531036377	-1.848348022	21.09679031	1.0
36	-29.50921631	-3.113244929e-06	-3.03402544e-06	0.4845192134	-1.746662736	19.94736099	1.0
37	-29.50921631	-3.113244929e-06	-3.03402544e-06	0.4312490821	-1.634720206	18.69197083	1.0
38	-29.50921631	-3.113244929e-06	-3.03402544e-06	0.3741808832	-1.518579245	17.39883041	1.0
[RightHandMiddle4]
35	-28.3390255	8.05324089e-05	0.0005378770875	0	0	0	1.0
36	-28.3390255	8.05324089e-05	0.0005378770875	0	0	0	1.0
37	-28.3390255	8.05324089e-05	0.0005378770875	0	0	0	1.0
38	-28.3390255	8.05324089e-05	0.0005378770875	0	0	0	1.0
[RightHandIndex1]
35	-91.08280945	-5.167889595	22.60116386	0.1376338303	-6.628990173	30.0933342	1.0
36	-91.08280945	-5.167889595	22.60116386	0.02676877193	-6.661154747	27.53188133	1.0
37	-91.08280945	-5.167889595	22.60116386	-0.1025889143	-6.684714794	24.73454857	1.0
38	-91.08280945	-5.167889595	22.60116386	-0.2443114519	-6.698349476	21.85315704	1.0
[RightHandIndex2]
35	-36.76409531	0.0001922715601	0.0003235567128	1.921919942	-0.8518379927	7.268887997	1.0
36	-36.76409531	0.0001922715601	0.0003235567128	1.903787136	-0.8967251182	7.910921097	1.0
37	-36.76409531	0.0001922715601	0.0003235567128	1.883167624	-0.9456059933	8.611857414	1.0
38	-36.76409531	0.0001922715601	0.0003235567128	1.861209512	-0.9958553314	9.333929062	1.0
[RightHandIndex3]
35	-28.83062553	-0.0004960121587	0.0004044897505	1.585350275	-1.136572003	12.31790161	1.0
36	-28.83062553	-0.0004960121587	0.0004044897505	1.486270785	-1.121434689	12.22059155	1.0
37	-28.83062553	-0.0004960121587	0.0004044897505	1.378067017	-1.104870081	12.11395264	1.0
38	-28.83062553	-0.0004960121587	0.0004044897505	1.266577125	-1.087790847	12.00408936	1.0
[RightHandIndex4]
35	-23.92720032	0.0002681470069	0.0002802013478	0	0	0	1.0
36	-23.92720032	0.0002681470069	0.0002802013478	0	0	0	1.0
37	-23.92720032	0.0002681470069	0.0002802013478	0	0	0	1.0
38	-23.92720032	0.0002681470069	0.0002802013478	0	0	0	1.0
[RightHandThumb1]
35	-24.64805984	-15.72714233	26.82626534	-17.80044365	-8.247053146	3.535246134	1.0
36	-24.64805984	-15.72714233	26.82626534	-15.07493591	-7.130657673	1.582989097	1.0
37	-24.64805984	-15.72714233	26.82626534	-12.16736507	-5.795267105	-0.4757591784	1.0
38	-24.64805984	-15.72714233	26.82626534	-9.233519554	-4.323886395	-2.529561281	1.0
[RightHandThumb2]
35	-32.29771805	-18.6470871	18.64718437	8.183440208	-28.37648964	-11.57320118	1.0
36	-32.29771805	-18.6470871	18.64718437	9.702732086	-28.15717888	-12.37081432	1.0
37	-32.29771805	-18.6470871	18.64718437	11.3537817	-27.89512253	-13.21630764	1.0
38	-32.29771805	-18.6470871	18.64718437	13.04689789	-27.60629082	-14.06306458	1.0
[RightHandThumb3]
35	-26.52605057	-15.31449318	15.31445599	3.555757999	-28.2569809	-18.95673561	1.0
36	-26.52605057	-15.31449318	15.31445599	4.611931801	-27.22121239	-19.74644279	1.0
37	-26.52605057	-15.31449318	15.31445599	5.736725807	-26.0783062	-20.57253647	1.0
38	-26.52605057	-15.31449318	15.31445599	6.87229538	-24.89159203	-21.39305496	1.0
[RightHandThumb4]
35	-19.54580498	-11.28461742	11.28507042	0	0	0	1.0
36	-19.54580498	-11.28461742	11.28507042	0	0	0	1.0
37	-19.54580498	-11.28461742	11.28507042	0	0	0	1.0
38	-19.54580498	-11.28461742	11.28507042	0	0	0	1.0
[LeftUpLeg]
35	82.07781982	-67.51714325	-15.99555588	-16.26726723	-3.071242094	20.96145248	1.0
36	82.07781982	-67.51714325	-15.99555588	-19.21559334	-6.05481863	22.17557144	1.0
37	82.07781982	-67.51714325	-15.99555588	-22.46881294	-8.604102135	23.21794701	1.0
38	82.07781982	-67.51714325	-15.99555588	-24.93165779	-10.40667152	24.10045815	1.0
[LeftLeg]
35	-4.110157988e-06	-443.7047119	2.846426487	42.8781662	-2.527068138	-10.9499836	1.0
36	-4.110157988e-06	-443.7047119	2.846426487	46.55299377	-1.515124798	-11.68979645	1.0
37	-4.110157988e-06	-443.7047119	2.846426487	52.69035721	0.4589237273	-12.3421917	1.0
38	-4.110157988e-06	-443.7047119	2.846426487	59.1776123	2.473121643	-12.6918726	1.0
[LeftFoot]
35	4.716393505e-06	-444.278717	-29.82190704	-17.39542007	-1.619457006	-2.003248692	1.0
36	4.716393505e-06	-444.278717	-29.82190704	-18.84778404	-3.013653278	-1.329683781	1.0
37	4.716393505e-06	-444.278717	-29.82190704	-21.7202301	-3.766317844	-0.8134812117	1.0
38	4.716393505e-06	-444.278717	-29.82190704	-25.13760757	-3.734338284	-0.2906750143	1.0
[LeftToeBase]
35	-2.960988058e-05	-87.28669739	107.1055984	-3.893311024	-1.113895814e-05	8.584414672e-07	1.0
36	-2.960988058e-05	-87.28669739	107.1055984	-3.65950346	-8.779958989e-06	2.998025593e-06	1.0
37	-2.960988058e-05	-87.28669739	107.1055984	-3.441068888	1.663983767e-06	1.008580421e-05	1.0
38	-2.960988058e-05	-87.28669739	107.1055984	-3.382624149	-4.479645952e-07	1.982885351e-06	1.0
[RightUpLeg]
35	-82.07795715	-67.51662445	-15.99559402	-2.759724379	-24.13030624	0.155490458	1.0
36	-82.07795715	-67.51662445	-15.99559402	-1.699046373	-23.67116928	1.171875954	1.0
37	-82.07795715	-67.51662445	-15.99559402	-3.66414547	-24.30624962	0.5970558524	1.0
38	-82.07795715	-67.51662445	-15.99559402	-6.124305248	-24.97047806	-0.4828793108	1.0
[RightLeg]
35	8.435572454e-07	-443.7053833	2.861563921	37.32580566	-4.399552345	-10.70391846	1.0
36	8.435572454e-07	-443.7053833	2.861563921	38.89384842	-3.642249584	-11.24050236	1.0
37	8.435572454e-07	-443.7053833	2.861563921	45.41825485	-2.307159662	-11.55174255	1.0
38	8.435572454e-07	-443.7053833	2.861563921	53.03418732	-0.9256154895	-11.53336048	1.0
[RightFoot]
35	9.644581951e-06	-444.2773132	-29.83789063	-18.84931564	-11.77399731	17.19488525	1.0
36	9.644581951e-06	-444.2773132	-29.83789063	-21.28856087	-8.300816536	17.51607895	1.0
37	9.644581951e-06	-444.2773132	-29.83789063	-24.32105637	-6.179984093	18.04675674	1.0
38	9.644581951e-06	-444.2773132	-29.83789063	-26.53479576	-5.242787361	18.61413574	1.0
[RightToeBase]
35	-2.360438157e-05	-87.28668976	107.1056061	-2.126369476	-0.0006713401526	0.008669696748	1.0
36	-2.360438157e-05	-87.28668976	107.1056061	-4.234384537	-9.161096386e-06	9.703124988e-07	1.0
37	-2.360438157e-05	-87.28668976	107.1056061	-6.959463596	1.22381407e-05	-6.799637049e-06	1.0
38	-2.360438157e-05	-87.28668976	107.1056061	-9.489320755	-6.874507562e-06	1.04803139e-05	1.0
[EndOfFile]
